<?xml version="1.0" encoding="UTF-8" standalone="no"?>
<!DOCTYPE svg PUBLIC "-//W3C//DTD SVG 1.1//EN" "http://www.w3.org/Graphics/SVG/1.1/DTD/svg11.dtd">
<svg width="100%" height="100%" viewBox="0 0 154 29" version="1.1" xmlns="http://www.w3.org/2000/svg" xmlns:xlink="http://www.w3.org/1999/xlink" xml:space="preserve" xmlns:serif="http://www.serif.com/" style="fill-rule:evenodd;clip-rule:evenodd;stroke-linejoin:round;stroke-miterlimit:2;">
    <g transform="matrix(0.90606,0,0,0.90606,-10.5365,-0.612671)">
        <g transform="matrix(30,0,0,30,58.6365,24.5861)">
            <path d="M0.211,0.012C0.178,0.012 0.145,0.006 0.111,-0.007C0.076,-0.02 0.046,-0.036 0.021,-0.057L0.087,-0.149C0.11,-0.132 0.131,-0.119 0.152,-0.11C0.173,-0.101 0.194,-0.097 0.215,-0.097C0.237,-0.097 0.253,-0.101 0.263,-0.108C0.273,-0.115 0.278,-0.126 0.278,-0.139C0.278,-0.147 0.275,-0.154 0.27,-0.161C0.264,-0.167 0.256,-0.173 0.247,-0.178C0.237,-0.183 0.226,-0.188 0.214,-0.193C0.202,-0.197 0.19,-0.202 0.177,-0.207C0.162,-0.213 0.146,-0.22 0.131,-0.228C0.116,-0.236 0.102,-0.246 0.089,-0.258C0.076,-0.269 0.066,-0.283 0.058,-0.299C0.05,-0.314 0.046,-0.332 0.046,-0.353C0.046,-0.376 0.05,-0.397 0.06,-0.416C0.068,-0.435 0.081,-0.452 0.098,-0.465C0.115,-0.478 0.135,-0.489 0.158,-0.497C0.181,-0.504 0.207,-0.508 0.236,-0.508C0.274,-0.508 0.307,-0.501 0.336,-0.489C0.365,-0.476 0.39,-0.461 0.411,-0.445L0.345,-0.357C0.327,-0.37 0.309,-0.381 0.292,-0.388C0.275,-0.395 0.257,-0.399 0.24,-0.399C0.203,-0.399 0.184,-0.386 0.184,-0.36C0.184,-0.352 0.187,-0.345 0.192,-0.34C0.197,-0.334 0.205,-0.329 0.214,-0.324C0.223,-0.319 0.233,-0.315 0.245,-0.311C0.256,-0.306 0.268,-0.302 0.281,-0.297C0.297,-0.291 0.313,-0.284 0.329,-0.277C0.344,-0.269 0.359,-0.259 0.372,-0.248C0.385,-0.237 0.395,-0.223 0.403,-0.207C0.411,-0.19 0.415,-0.171 0.415,-0.148C0.415,-0.125 0.411,-0.104 0.402,-0.085C0.393,-0.066 0.38,-0.049 0.363,-0.035C0.346,-0.02 0.324,-0.009 0.299,-0.001C0.274,0.008 0.244,0.012 0.211,0.012Z" style="fill:white;fill-rule:nonzero;"/>
        </g>
        <g transform="matrix(30,0,0,30,71.9265,24.5861)">
            <path d="M0.287,0.012C0.252,0.012 0.219,0.006 0.188,-0.006C0.157,-0.017 0.131,-0.034 0.108,-0.057C0.085,-0.079 0.068,-0.106 0.055,-0.138C0.042,-0.17 0.036,-0.207 0.036,-0.248C0.036,-0.288 0.043,-0.324 0.056,-0.357C0.069,-0.389 0.087,-0.416 0.109,-0.439C0.13,-0.461 0.155,-0.478 0.183,-0.49C0.211,-0.502 0.24,-0.508 0.27,-0.508C0.305,-0.508 0.336,-0.502 0.363,-0.49C0.389,-0.478 0.411,-0.461 0.429,-0.44C0.446,-0.419 0.459,-0.394 0.468,-0.365C0.477,-0.335 0.481,-0.304 0.481,-0.27C0.481,-0.257 0.48,-0.244 0.479,-0.232C0.478,-0.22 0.476,-0.211 0.475,-0.205L0.178,-0.205C0.185,-0.169 0.2,-0.142 0.223,-0.126C0.246,-0.109 0.274,-0.1 0.307,-0.1C0.342,-0.1 0.378,-0.111 0.414,-0.133L0.463,-0.044C0.438,-0.027 0.409,-0.013 0.379,-0.003C0.347,0.007 0.317,0.012 0.287,0.012ZM0.177,-0.302L0.356,-0.302C0.356,-0.33 0.35,-0.353 0.337,-0.37C0.324,-0.387 0.303,-0.396 0.273,-0.396C0.25,-0.396 0.229,-0.388 0.212,-0.373C0.194,-0.358 0.182,-0.334 0.177,-0.302Z" style="fill:white;fill-rule:nonzero;"/>
        </g>
        <g transform="matrix(30,0,0,30,87.4665,24.5861)">
            <path d="M0.065,-0L0.065,-0.496L0.185,-0.496L0.195,-0.432L0.199,-0.432C0.22,-0.453 0.242,-0.47 0.265,-0.486C0.288,-0.501 0.316,-0.508 0.349,-0.508C0.384,-0.508 0.413,-0.501 0.435,-0.487C0.456,-0.472 0.473,-0.452 0.486,-0.425C0.508,-0.448 0.531,-0.467 0.556,-0.484C0.58,-0.5 0.609,-0.508 0.642,-0.508C0.695,-0.508 0.735,-0.49 0.76,-0.455C0.785,-0.419 0.797,-0.37 0.797,-0.308L0.797,-0L0.65,-0L0.65,-0.289C0.65,-0.325 0.645,-0.35 0.636,-0.363C0.626,-0.376 0.61,-0.383 0.589,-0.383C0.564,-0.383 0.536,-0.367 0.504,-0.335L0.504,-0L0.357,-0L0.357,-0.289C0.357,-0.325 0.352,-0.35 0.343,-0.363C0.333,-0.376 0.317,-0.383 0.296,-0.383C0.271,-0.383 0.243,-0.367 0.212,-0.335L0.212,-0L0.065,-0Z" style="fill:white;fill-rule:nonzero;"/>
        </g>
        <g transform="matrix(30,0,0,30,113.176,24.5861)">
            <path d="M0.065,-0L0.065,-0.496L0.212,-0.496L0.212,-0L0.065,-0ZM0.138,-0.569C0.113,-0.569 0.093,-0.576 0.077,-0.591C0.061,-0.605 0.053,-0.623 0.053,-0.646C0.053,-0.669 0.061,-0.687 0.077,-0.701C0.093,-0.715 0.113,-0.722 0.138,-0.722C0.163,-0.722 0.184,-0.715 0.2,-0.701C0.215,-0.687 0.223,-0.669 0.223,-0.646C0.223,-0.623 0.215,-0.605 0.2,-0.591C0.184,-0.576 0.163,-0.569 0.138,-0.569Z" style="fill:white;fill-rule:nonzero;"/>
        </g>
        <g transform="matrix(30,0,0,30,121.456,24.5861)">
            <path d="M0.256,0.012C0.225,0.012 0.199,0.007 0.178,-0.002C0.156,-0.011 0.138,-0.024 0.125,-0.041C0.111,-0.058 0.101,-0.078 0.095,-0.102C0.088,-0.125 0.085,-0.151 0.085,-0.18L0.085,-0.381L0.017,-0.381L0.017,-0.49L0.093,-0.496L0.11,-0.628L0.232,-0.628L0.232,-0.496L0.351,-0.496L0.351,-0.381L0.232,-0.381L0.232,-0.182C0.232,-0.154 0.238,-0.134 0.25,-0.122C0.261,-0.109 0.277,-0.103 0.296,-0.103C0.304,-0.103 0.312,-0.104 0.321,-0.106C0.329,-0.108 0.336,-0.11 0.343,-0.113L0.366,-0.006C0.353,-0.002 0.337,0.002 0.319,0.006C0.301,0.01 0.28,0.012 0.256,0.012Z" style="fill:white;fill-rule:nonzero;"/>
        </g>
        <g transform="matrix(30,0,0,30,132.946,24.5861)">
            <path d="M0.214,0.012C0.16,0.012 0.121,-0.006 0.097,-0.041C0.072,-0.076 0.06,-0.125 0.06,-0.188L0.06,-0.496L0.207,-0.496L0.207,-0.207C0.207,-0.171 0.212,-0.146 0.222,-0.133C0.232,-0.12 0.248,-0.113 0.269,-0.113C0.288,-0.113 0.303,-0.117 0.316,-0.126C0.329,-0.135 0.342,-0.149 0.357,-0.168L0.357,-0.496L0.504,-0.496L0.504,-0L0.384,-0L0.373,-0.069L0.37,-0.069C0.349,-0.044 0.326,-0.024 0.302,-0.01C0.277,0.005 0.248,0.012 0.214,0.012Z" style="fill:white;fill-rule:nonzero;"/>
        </g>
        <g transform="matrix(30,0,0,30,149.986,24.5861)">
            <path d="M0.065,-0L0.065,-0.496L0.185,-0.496L0.195,-0.433L0.199,-0.433C0.22,-0.453 0.244,-0.47 0.269,-0.486C0.294,-0.501 0.324,-0.508 0.358,-0.508C0.412,-0.508 0.451,-0.49 0.476,-0.455C0.5,-0.42 0.512,-0.371 0.512,-0.308L0.512,-0L0.365,-0L0.365,-0.289C0.365,-0.325 0.36,-0.35 0.351,-0.363C0.341,-0.376 0.325,-0.383 0.304,-0.383C0.285,-0.383 0.269,-0.379 0.256,-0.371C0.243,-0.362 0.228,-0.35 0.212,-0.335L0.212,-0L0.065,-0Z" style="fill:white;fill-rule:nonzero;"/>
        </g>
        <g transform="matrix(30,0,0,30,167.146,24.5861)">
            <path d="M0.287,0.012C0.252,0.012 0.219,0.006 0.188,-0.006C0.157,-0.017 0.131,-0.034 0.108,-0.057C0.085,-0.079 0.068,-0.106 0.055,-0.138C0.042,-0.17 0.036,-0.207 0.036,-0.248C0.036,-0.288 0.043,-0.324 0.056,-0.357C0.069,-0.389 0.087,-0.416 0.109,-0.439C0.13,-0.461 0.155,-0.478 0.183,-0.49C0.211,-0.502 0.24,-0.508 0.27,-0.508C0.305,-0.508 0.336,-0.502 0.363,-0.49C0.389,-0.478 0.411,-0.461 0.429,-0.44C0.446,-0.419 0.459,-0.394 0.468,-0.365C0.477,-0.335 0.481,-0.304 0.481,-0.27C0.481,-0.257 0.48,-0.244 0.479,-0.232C0.478,-0.22 0.476,-0.211 0.475,-0.205L0.178,-0.205C0.185,-0.169 0.2,-0.142 0.223,-0.126C0.246,-0.109 0.274,-0.1 0.307,-0.1C0.342,-0.1 0.378,-0.111 0.414,-0.133L0.463,-0.044C0.438,-0.027 0.409,-0.013 0.379,-0.003C0.347,0.007 0.317,0.012 0.287,0.012ZM0.177,-0.302L0.356,-0.302C0.356,-0.33 0.35,-0.353 0.337,-0.37C0.324,-0.387 0.303,-0.396 0.273,-0.396C0.25,-0.396 0.229,-0.388 0.212,-0.373C0.194,-0.358 0.182,-0.334 0.177,-0.302Z" style="fill:white;fill-rule:nonzero;"/>
        </g>
    </g>
    <g id="Mark" transform="matrix(0.931203,0,0,0.931203,-9.07928,-12.0994)">
        <g transform="matrix(0.0893988,0,0,0.0915411,-10.1974,-8.10612)">
            <rect x="319.682" y="230.491" width="256.904" height="50.241" style="fill:white;"/>
        </g>
        <g transform="matrix(0.0893988,0,0,0.0915411,-18.8291,0.525603)">
            <rect x="319.682" y="230.491" width="256.904" height="50.241" style="fill:white;"/>
        </g>
        <g transform="matrix(0.0893988,0,0,0.0915411,-10.1974,9.15733)">
            <rect x="319.682" y="230.491" width="256.904" height="50.241" style="fill:white;"/>
        </g>
        <g transform="matrix(0.0893988,0,0,0.0915411,-18.8291,17.7891)">
            <rect x="319.682" y="230.491" width="256.904" height="50.241" style="fill:white;"/>
        </g>
    </g>
</svg>
