<?xml version="1.0" encoding="UTF-8" standalone="no"?>
<!DOCTYPE svg PUBLIC "-//W3C//DTD SVG 1.1//EN" "http://www.w3.org/Graphics/SVG/1.1/DTD/svg11.dtd">
<svg width="100%" height="100%" viewBox="0 0 800 200" version="1.1" xmlns="http://www.w3.org/2000/svg" xmlns:xlink="http://www.w3.org/1999/xlink" xml:space="preserve" xmlns:serif="http://www.serif.com/" style="fill-rule:evenodd;clip-rule:evenodd;">
    <g id="Layer1" transform="matrix(1,0,0,1,86,0)">
        <g opacity="0.15">
            <g transform="matrix(1,0,0,1,31.0118,0.00309918)">
                <path d="M181.234,28.657C183.239,24.311 178.264,19.227 170.946,19.227C163.628,19.227 157.375,21.676 145.328,21.676C137.678,21.676 123.102,12.176 110.933,12.176C98.763,12.176 91.114,31.038 91.114,46.825C91.114,63.576 97.993,81.443 110.163,81.443C122.332,81.443 131.073,72.513 141.504,72.513C148.828,72.513 157.807,74.714 162.525,74.714C168.226,74.714 175.482,69.087 172.267,65.181C169.382,61.676 157.967,69.956 154.659,60.356C152.806,54.977 160.627,53.203 160.627,53.203L253.115,50.839C253.115,50.839 260.069,51.627 260.069,56.75C260.069,61.873 274.224,52.873 276.258,53.491C278.291,54.109 279.607,59.566 282.966,59.566C287.138,59.566 288.58,57.625 288.58,53.597C288.58,45.996 256.091,37.377 255.041,37.377C253.99,37.377 254.157,42.168 254.157,42.168L168.726,40.986C168.726,40.986 160.656,39.86 161.566,34.841C163.972,21.586 179.23,33.002 181.235,28.657L181.234,28.657Z" style="fill:none;fill-rule:nonzero;stroke:rgb(26,32,44);stroke-width:0.5px;"/>
            </g>
            <g transform="matrix(1,0,0,1,31.0118,0.00309918)">
                <path d="M38.63,169.25C38.63,162.332 47.961,159.115 53.753,159.115C66.141,159.115 64.693,167.641 73.863,167.641C78.85,167.641 90.273,166.998 95.743,166.998C101.695,166.998 106.959,167.125 106.959,170.076C106.959,173.028 99.6,172.598 95.582,172.628C91.238,172.628 82.39,171.824 73.702,171.824C64.049,171.824 67.75,180.19 54.236,180.19C45.548,180.19 38.63,176.168 38.63,169.25Z" style="fill:none;fill-rule:nonzero;stroke:rgb(26,32,44);stroke-width:0.5px;"/>
            </g>
            <g transform="matrix(1,0,0,1,31.0118,0.00309918)">
                <g transform="matrix(0.42248,0,0,0.42248,-27.1439,-10.1256)">
                    <path d="M219.904,119.126C219.904,115.206 216.722,112.025 212.803,112.025L38.219,112.025C34.3,112.025 31.118,115.206 31.118,119.126L31.118,293.709C31.118,297.628 34.3,300.81 38.219,300.81L212.803,300.81C216.722,300.81 219.904,297.628 219.904,293.709L219.904,119.126Z" style="fill:none;stroke:rgb(26,32,44);stroke-opacity:0.99;stroke-width:1.18px;"/>
                    <path d="M147.007,198.846C147.007,194.927 143.825,191.745 139.906,191.745L51.842,191.745C47.923,191.745 44.742,194.927 44.742,198.846L44.742,277.076C44.742,280.995 47.923,284.177 51.842,284.177L139.906,284.177C143.825,284.177 147.007,280.995 147.007,277.076L147.007,198.846Z" style="fill:none;stroke:rgb(26,32,44);stroke-opacity:0.99;stroke-width:1.18px;"/>
                    <path d="M146.024,137.392C146.024,133.473 142.843,130.291 138.924,130.291L50.86,130.291C46.941,130.291 43.759,133.473 43.759,137.392L43.759,158.59C43.759,162.509 46.941,165.69 50.86,165.69L138.924,165.69C142.843,165.69 146.024,162.509 146.024,158.59L146.024,137.392Z" style="fill:none;stroke:rgb(26,32,44);stroke-opacity:0.99;stroke-width:1.18px;"/>
                    <path d="M205.022,251.816C205.022,250.139 203.661,248.778 201.984,248.778L164.302,248.778C162.625,248.778 161.263,250.139 161.263,251.816L161.263,281.139C161.263,282.816 162.625,284.177 164.302,284.177L201.984,284.177C203.661,284.177 205.022,282.816 205.022,281.139L205.022,251.816Z" style="fill:none;stroke:rgb(26,32,44);stroke-opacity:0.99;stroke-width:1.18px;"/>
                    <circle cx="170.852" cy="149.219" r="5.9" style="fill:none;stroke:rgb(26,32,44);stroke-opacity:0.99;stroke-width:1.18px;"/>
                    <circle cx="196.416" cy="149.219" r="5.9" style="fill:none;stroke:rgb(26,32,44);stroke-opacity:0.99;stroke-width:1.18px;"/>
                    <path d="M205.022,197.584C205.022,195.908 203.661,194.546 201.984,194.546L164.302,194.546C162.625,194.546 161.263,195.908 161.263,197.584L161.263,226.907C161.263,228.584 162.625,229.946 164.302,229.946L201.984,229.946C203.661,229.946 205.022,228.584 205.022,226.907L205.022,197.584Z" style="fill:none;stroke:rgb(26,32,44);stroke-opacity:0.99;stroke-width:1.18px;"/>
                </g>
                <g transform="matrix(0,0.42248,-0.42248,0,336.62,-82.8653)">
                    <path d="M615.671,238.172C615.671,234.253 612.49,231.071 608.57,231.071L494.844,231.071C490.925,231.071 487.743,234.253 487.743,238.172L487.743,402.271C487.743,406.19 490.925,409.372 494.844,409.372L608.57,409.372C612.49,409.372 615.671,406.19 615.671,402.271L615.671,238.172Z" style="fill:none;stroke:rgb(26,32,44);stroke-opacity:0.99;stroke-width:1.18px;"/>
                    <circle cx="551.692" cy="350.204" r="43.974" style="fill:none;stroke:rgb(26,32,44);stroke-opacity:0.99;stroke-width:1.18px;"/>
                    <circle cx="551.692" cy="350.204" r="12.793" style="fill:none;stroke:rgb(26,32,44);stroke-opacity:0.99;stroke-width:1.18px;"/>
                    <circle cx="551.692" cy="270.249" r="12.793" style="fill:none;stroke:rgb(26,32,44);stroke-opacity:0.99;stroke-width:1.18px;"/>
                </g>
                <g transform="matrix(0.42248,0,0,0.42248,-6.23616,16.1278)">
                    <path d="M801.566,238.185C801.566,233.397 797.678,229.51 792.89,229.51L653.948,229.51C649.16,229.51 645.272,233.397 645.272,238.185L645.272,399.136C645.272,403.924 649.16,407.811 653.948,407.811L792.89,407.811C797.678,407.811 801.566,403.924 801.566,399.136L801.566,238.185Z" style="fill:none;stroke:rgb(26,32,44);stroke-opacity:0.99;stroke-width:1.18px;"/>
                    <circle cx="723.432" cy="341.95" r="48.597" style="fill:none;stroke:rgb(26,32,44);stroke-opacity:0.99;stroke-width:1.18px;"/>
                    <circle cx="662.847" cy="365.999" r="5.9" style="fill:none;stroke:rgb(26,32,44);stroke-opacity:0.99;stroke-width:1.18px;"/>
                    <circle cx="662.847" cy="387.209" r="5.9" style="fill:none;stroke:rgb(26,32,44);stroke-opacity:0.99;stroke-width:1.18px;"/>
                    <path d="M784.029,252.526C784.029,248.607 780.847,245.426 776.928,245.426L671.497,245.426C667.578,245.426 664.396,248.607 664.396,252.526L664.396,274.265C664.396,278.184 667.578,281.366 671.497,281.366L776.928,281.366C780.847,281.366 784.029,278.184 784.029,274.265L784.029,252.526Z" style="fill:none;stroke:rgb(26,32,44);stroke-opacity:0.99;stroke-width:1.18px;"/>
                    <circle cx="723.432" cy="341.95" r="9.575" style="fill:none;stroke:rgb(26,32,44);stroke-opacity:0.99;stroke-width:1.18px;"/>
                </g>
            </g>
            <g transform="matrix(1,0,0,1,31.0118,0.00309918)">
                <path d="M481.348,24.257C481.348,23.382 480.638,22.672 479.763,22.672L383.2,22.672C382.325,22.672 381.615,23.382 381.615,24.257L381.615,82.043C381.615,82.917 382.325,83.628 383.2,83.628L479.763,83.628C480.638,83.628 481.348,82.917 481.348,82.043L481.348,24.257Z" style="fill:none;stroke:rgb(26,32,44);stroke-opacity:0.99;stroke-width:0.5px;"/>
                <circle cx="393.294" cy="34.938" r="2.493" style="fill:none;stroke:rgb(26,32,44);stroke-opacity:0.99;stroke-width:0.5px;"/>
                <circle cx="414.686" cy="34.938" r="2.493" style="fill:none;stroke:rgb(26,32,44);stroke-opacity:0.99;stroke-width:0.5px;"/>
                <circle cx="436.493" cy="34.938" r="2.493" style="fill:none;stroke:rgb(26,32,44);stroke-opacity:0.99;stroke-width:0.5px;"/>
                <circle cx="446.736" cy="34.938" r="2.493" style="fill:none;stroke:rgb(26,32,44);stroke-opacity:0.99;stroke-width:0.5px;"/>
                <circle cx="457.432" cy="34.938" r="2.493" style="fill:none;stroke:rgb(26,32,44);stroke-opacity:0.99;stroke-width:0.5px;"/>
                <circle cx="468.128" cy="34.938" r="2.493" style="fill:none;stroke:rgb(26,32,44);stroke-opacity:0.99;stroke-width:0.5px;"/>
                <circle cx="393.294" cy="47.154" r="2.493" style="fill:none;stroke:rgb(26,32,44);stroke-opacity:0.99;stroke-width:0.5px;"/>
                <circle cx="403.99" cy="47.154" r="2.493" style="fill:none;stroke:rgb(26,32,44);stroke-opacity:0.99;stroke-width:0.5px;"/>
                <circle cx="425.382" cy="47.154" r="2.493" style="fill:none;stroke:rgb(26,32,44);stroke-opacity:0.99;stroke-width:0.5px;"/>
                <circle cx="436.493" cy="47.154" r="2.493" style="fill:none;stroke:rgb(26,32,44);stroke-opacity:0.99;stroke-width:0.5px;"/>
                <circle cx="468.128" cy="47.154" r="2.493" style="fill:none;stroke:rgb(26,32,44);stroke-opacity:0.99;stroke-width:0.5px;"/>
                <circle cx="393.294" cy="59.373" r="2.493" style="fill:none;stroke:rgb(26,32,44);stroke-opacity:0.99;stroke-width:0.5px;"/>
                <circle cx="403.99" cy="59.373" r="2.493" style="fill:none;stroke:rgb(26,32,44);stroke-opacity:0.99;stroke-width:0.5px;"/>
                <circle cx="414.686" cy="47.501" r="2.493" style="fill:none;stroke:rgb(26,32,44);stroke-opacity:0.99;stroke-width:0.5px;"/>
                <circle cx="425.382" cy="59.373" r="2.493" style="fill:none;stroke:rgb(26,32,44);stroke-opacity:0.99;stroke-width:0.5px;"/>
                <circle cx="446.736" cy="59.373" r="2.493" style="fill:none;stroke:rgb(26,32,44);stroke-opacity:0.99;stroke-width:0.5px;"/>
                <circle cx="457.432" cy="59.373" r="2.493" style="fill:none;stroke:rgb(26,32,44);stroke-opacity:0.99;stroke-width:0.5px;"/>
                <circle cx="404.141" cy="72.563" r="4.097" style="fill:none;stroke:rgb(26,32,44);stroke-opacity:0.99;stroke-width:0.5px;"/>
                <circle cx="425.382" cy="71.588" r="2.493" style="fill:none;stroke:rgb(26,32,44);stroke-opacity:0.99;stroke-width:0.5px;"/>
                <circle cx="463.252" cy="71.868" r="2.493" style="fill:none;stroke:rgb(26,32,44);stroke-opacity:0.99;stroke-width:0.5px;"/>
                <circle cx="451.536" cy="46.367" r="4.097" style="fill:none;stroke:rgb(26,32,44);stroke-opacity:0.99;stroke-width:0.5px;"/>
                <path d="M91.373,45.748L86.135,45.748C85.204,45.748 82.361,45.748 80.644,47.464C78.927,49.181 79.214,56.866 78.927,61.605C78.132,74.745 78.927,101.093 78.927,101.093C78.927,110.283 78.927,113.493 80.656,115.221C82.385,116.949 85.568,116.949 90.608,116.949L138.335,116.949C143.335,116.949 146.349,116.949 148.175,115.123C150.001,113.297 150.001,111.036 150.001,106.921L150.001,93.867C150.001,88.629 150.001,87.812 151.992,85.82C153.984,83.829 156.668,83.829 179.927,83.829L270.129,83.829C293.59,83.829 296.668,83.829 298.334,82.203C300,80.578 300,77.163 300,68.777L300,35.294C300,27.255 300,23.333 298.314,21.666C296.628,19.999 293.334,19.999 289.999,19.999C286.664,19.999 283.334,19.999 281.667,18.48C280,16.961 280,13.333 280,10L280,-0.001" style="fill:none;fill-rule:nonzero;stroke:rgb(26,32,44);stroke-width:0.5px;"/>
                <path d="M58.072,37L58.072,29.417C58.072,26.499 58.072,23.335 59.671,21.668C61.271,20.001 64.739,20.001 68.217,20.001L78.124,20.001C81.508,20.001 84.739,20.001 86.406,18.394C88.072,16.787 88.072,13.335 88.072,10.103L88.072,0.001" style="fill:none;fill-rule:nonzero;stroke:rgb(26,32,44);stroke-width:0.5px;"/>
                <g transform="matrix(1,0,0,1,70.907,0)">
                    <path d="M405.01,75.001L427.498,75.001C433.319,75.001 436.677,75.001 438.343,76.77C440.009,78.538 440.009,81.669 440.009,84.261L440.009,90.828C440.009,93.322 440.009,96.668 438.43,98.334C436.851,100 433.344,100 428.053,100L411.569,100C406.46,100 403.344,100 401.677,101.891C400.01,103.782 400.01,106.668 400.01,109.466L400.01,115.703C400.01,118.071 400.01,121.668 398.252,123.334C396.494,125 393.345,125 381.277,125L338.043,125C326.075,125 323.345,125 321.678,123.302C320.011,121.603 320.011,118.335 320.011,109.872L320.011,75.001" style="fill:none;fill-rule:nonzero;stroke:rgb(26,32,44);stroke-width:0.5px;stroke-linecap:round;"/>
                </g>
                <g transform="matrix(1,0,0,1,70.907,-1.99999)">
                    <path d="M344.996,65L344.996,95.868C344.996,103.401 344.996,106.667 346.688,108.334C348.38,110 351.663,110 355.776,110L369.112,110C373.228,110 376.663,110 378.329,108.364C379.995,106.728 379.995,103.334 379.995,97.524L379.995,75" style="fill:none;fill-rule:nonzero;stroke:rgb(26,32,44);stroke-width:0.5px;stroke-linecap:round;"/>
                </g>
                <circle cx="436.493" cy="64.687" r="2.493" style="fill:none;stroke:rgb(26,32,44);stroke-opacity:0.99;stroke-width:0.5px;"/>
                <g transform="matrix(1,0,0,1,70.907,0)">
                    <path d="M410.301,65L428.275,65C433.121,65 436.66,65 438.326,63.11C439.992,61.22 439.992,58.335 439.992,54.12L439.992,40.975C439.992,36.949 439.992,33.335 438.27,31.668C436.548,30.001 433.326,30.001 429.703,30.001C426.079,30.001 423.326,30.001 421.659,28.663C419.992,27.325 419.992,23.335 419.992,18.546L419.992,0.001" style="fill:none;fill-rule:nonzero;stroke:rgb(26,32,44);stroke-width:0.5px;"/>
                </g>
                <path d="M43.487,36.97L43.487,0.001" style="fill:none;fill-rule:nonzero;stroke:rgb(26,32,44);stroke-width:0.5px;"/>
            </g>
            <g transform="matrix(0.42248,0,0,0.42248,354.23,-82.2008)">
                <path d="M615.671,238.172C615.671,234.253 612.49,231.071 608.57,231.071L494.844,231.071C490.925,231.071 487.743,234.253 487.743,238.172L487.743,402.271C487.743,406.19 490.925,409.372 494.844,409.372L608.57,409.372C612.49,409.372 615.671,406.19 615.671,402.271L615.671,238.172Z" style="fill:none;stroke:rgb(26,32,44);stroke-opacity:0.99;stroke-width:1.18px;"/>
                <circle cx="551.692" cy="350.204" r="43.974" style="fill:none;stroke:rgb(26,32,44);stroke-opacity:0.99;stroke-width:1.18px;"/>
                <circle cx="551.692" cy="350.204" r="12.793" style="fill:none;stroke:rgb(26,32,44);stroke-opacity:0.99;stroke-width:1.18px;"/>
                <circle cx="551.692" cy="270.249" r="12.793" style="fill:none;stroke:rgb(26,32,44);stroke-opacity:0.99;stroke-width:1.18px;"/>
            </g>
            <g transform="matrix(1,0,0,1,31.0118,0.00309918)">
                <g transform="matrix(1,0,0,1,46.6918,0)">
                    <path d="M510.004,89.998L510.004,119.151C510.004,123.304 510.004,126.665 508.278,128.331C506.552,129.997 503.339,129.997 494.084,129.997L460.633,129.997C451.26,129.997 448.339,129.997 446.672,132.002C445.005,134.006 445.005,136.665 445.005,139.367L445.005,145.842C445.005,148.352 445.005,151.665 443.325,153.331C441.644,154.997 438.339,154.997 419.041,154.997L345.901,154.997C326.795,154.997 323.34,154.997 321.673,153.533C320.006,152.069 320.006,148.332 320.006,122.653L320.006,-0.002" style="fill:none;fill-rule:nonzero;stroke:rgb(26,32,44);stroke-width:0.5px;"/>
                </g>
                <path d="M319.998,113.057L319.998,104.444C319.998,101.2 319.998,98.335 321.689,96.668C323.381,95.001 326.665,95.001 329.831,95.001L339.794,95.001C342.923,95.001 346.666,95.001 348.332,93.371C349.998,91.74 349.998,88.336 349.998,82.281L349.998,62.551C349.998,56.766 349.998,53.336 348.319,51.669C346.64,50.002 343.332,50.002 339.946,50.002L329.672,50.002C326.012,50.002 323.332,50.002 321.665,48.11C319.998,46.219 319.998,43.336 319.998,39.892L319.998,30.162C319.998,26.988 319.998,23.336 321.69,21.669C323.381,20.002 326.666,20.002 329.831,20.002L339.872,20.002C343.078,20.002 346.666,20.002 348.332,18.532C349.998,17.061 349.998,13.336 349.998,10.081L349.998,0.002" style="fill:none;fill-rule:nonzero;stroke:rgb(26,32,44);stroke-width:0.5px;"/>
                <path d="M309.998,113.041L309.998,0.001" style="fill:none;fill-rule:nonzero;stroke:rgb(26,32,44);stroke-width:0.5px;"/>
                <path d="M209.996,0.001L209.996,5.837C209.996,8.34 209.996,11.668 211.722,13.334C213.448,15 216.664,15 223.026,15L246.532,15C253.067,15 256.663,15 258.329,13.531C259.995,12.062 259.995,8.335 259.995,5.761L259.995,0.001" style="fill:none;fill-rule:nonzero;stroke:rgb(26,32,44);stroke-width:0.5px;"/>
            </g>
            <g transform="matrix(1,0,0,1,31.0118,0.00309918)">
                <g transform="matrix(-1,-7.65714e-16,7.65714e-16,-1,1186.99,190.637)">
                    <path d="M602.866,94.325L602.866,87.929" style="fill:none;fill-rule:nonzero;stroke:rgb(26,32,44);stroke-width:0.5px;stroke-linecap:round;"/>
                    <g transform="matrix(0.62815,0,0,0.62815,575.692,-2.68234)">
                        <path d="M37.901,156.694C36.393,154.244 34.884,151.793 33.375,149.341" style="fill:none;fill-rule:nonzero;stroke:rgb(26,32,44);stroke-width:0.8px;stroke-linecap:round;"/>
                    </g>
                    <path d="M598.029,98.974L591.633,98.974" style="fill:none;fill-rule:nonzero;stroke:rgb(26,32,44);stroke-width:0.5px;stroke-linecap:round;"/>
                </g>
                <g transform="matrix(-1,0,0,1,841.768,24.2757)">
                    <path d="M602.866,94.325L602.866,87.929" style="fill:none;fill-rule:nonzero;stroke:rgb(26,32,44);stroke-width:0.5px;stroke-linecap:round;"/>
                    <g transform="matrix(0.62815,0,0,0.62815,575.692,-2.68234)">
                        <path d="M37.901,156.694C36.393,154.244 34.884,151.793 33.375,149.341" style="fill:none;fill-rule:nonzero;stroke:rgb(26,32,44);stroke-width:0.8px;stroke-linecap:round;"/>
                    </g>
                    <path d="M598.029,98.974L591.633,98.974" style="fill:none;fill-rule:nonzero;stroke:rgb(26,32,44);stroke-width:0.5px;stroke-linecap:round;"/>
                </g>
                <path d="M35.201,161.971C35.201,161.971 38.646,156.803 45.966,155.598" style="fill:none;fill-rule:nonzero;stroke:rgb(26,32,44);stroke-width:0.5px;stroke-linecap:round;"/>
            </g>
            <g transform="matrix(1,0,0,1,31.0118,-4.99679)">
                <path d="M-30.013,5.001L-30.013,106.627C-30.013,128.255 -30.013,131.666 -28.318,133.332C-26.622,134.998 -23.345,134.998 -15.029,134.998L54.944,134.998C63.223,134.998 66.665,134.998 68.331,136.59C69.997,138.181 69.997,141.666 69.997,143.332L69.997,146.665C69.997,148.333 69.997,151.666 71.664,153.332C73.332,154.998 76.665,154.998 92.266,154.998L163.604,154.998" style="fill:none;fill-rule:nonzero;stroke:rgb(26,32,44);stroke-width:0.5px;"/>
            </g>
        </g>
    </g>
</svg>
