<?xml version="1.0" encoding="UTF-8" standalone="no"?><!DOCTYPE svg PUBLIC "-//W3C//DTD SVG 1.1//EN" "http://www.w3.org/Graphics/SVG/1.1/DTD/svg11.dtd"><svg width="128" height="25" viewBox="0 0 128 25" version="1.1" xmlns="http://www.w3.org/2000/svg" xmlns:xlink="http://www.w3.org/1999/xlink" xml:space="preserve" xmlns:serif="http://www.serif.com/" style="fill-rule:evenodd;clip-rule:evenodd;stroke-linejoin:round;stroke-miterlimit:2;"><path d="M41.634,18.68c-0.854,-0 -1.704,-0.157 -2.55,-0.47c-0.847,-0.313 -1.604,-0.783 -2.27,-1.41l1.68,-2.02c0.466,0.4 0.983,0.727 1.55,0.98c0.566,0.253 1.123,0.38 1.67,0.38c0.613,-0 1.07,-0.113 1.37,-0.34c0.3,-0.227 0.45,-0.533 0.45,-0.92c-0,-0.2 -0.044,-0.373 -0.13,-0.52c-0.087,-0.147 -0.214,-0.277 -0.38,-0.39c-0.167,-0.113 -0.367,-0.22 -0.6,-0.32c-0.234,-0.1 -0.49,-0.21 -0.77,-0.33l-1.7,-0.72c-0.334,-0.133 -0.657,-0.307 -0.97,-0.52c-0.314,-0.213 -0.594,-0.463 -0.84,-0.75c-0.247,-0.287 -0.444,-0.62 -0.59,-1c-0.147,-0.38 -0.22,-0.81 -0.22,-1.29c-0,-0.533 0.113,-1.037 0.34,-1.51c0.226,-0.473 0.546,-0.887 0.96,-1.24c0.413,-0.353 0.903,-0.63 1.47,-0.83c0.566,-0.2 1.19,-0.3 1.87,-0.3c0.76,-0 1.51,0.147 2.25,0.44c0.74,0.293 1.39,0.72 1.95,1.28l-1.5,1.86c-0.427,-0.333 -0.854,-0.59 -1.28,-0.77c-0.427,-0.18 -0.9,-0.27 -1.42,-0.27c-0.507,-0 -0.91,0.103 -1.21,0.31c-0.3,0.207 -0.45,0.497 -0.45,0.87c-0,0.2 0.05,0.37 0.15,0.51c0.1,0.14 0.24,0.267 0.42,0.38c0.18,0.113 0.39,0.22 0.63,0.32c0.24,0.1 0.5,0.21 0.78,0.33l1.68,0.68c0.8,0.32 1.43,0.76 1.89,1.32c0.46,0.56 0.69,1.3 0.69,2.22c-0,0.547 -0.11,1.063 -0.33,1.55c-0.22,0.487 -0.54,0.913 -0.96,1.28c-0.42,0.367 -0.937,0.66 -1.55,0.88c-0.614,0.22 -1.307,0.33 -2.08,0.33Z" style="fill:#151515;fill-rule:nonzero;"/><path d="M52.974,18.68c-0.707,-0 -1.367,-0.117 -1.98,-0.35c-0.614,-0.233 -1.147,-0.573 -1.6,-1.02c-0.454,-0.447 -0.807,-0.99 -1.06,-1.63c-0.254,-0.64 -0.38,-1.373 -0.38,-2.2c-0,-0.8 0.133,-1.523 0.4,-2.17c0.266,-0.647 0.616,-1.193 1.05,-1.64c0.433,-0.447 0.93,-0.79 1.49,-1.03c0.56,-0.24 1.14,-0.36 1.74,-0.36c0.706,-0 1.323,0.12 1.85,0.36c0.526,0.24 0.966,0.573 1.32,1c0.353,0.427 0.616,0.93 0.79,1.51c0.173,0.58 0.26,1.21 0.26,1.89c-0,0.267 -0.014,0.52 -0.04,0.76c-0.027,0.24 -0.054,0.42 -0.08,0.54l-5.94,-0c0.133,0.72 0.43,1.25 0.89,1.59c0.46,0.34 1.023,0.51 1.69,0.51c0.706,-0 1.42,-0.22 2.14,-0.66l0.98,1.78c-0.507,0.347 -1.07,0.62 -1.69,0.82c-0.62,0.2 -1.23,0.3 -1.83,0.3Zm-2.2,-6.28l3.58,-0c-0,-0.56 -0.127,-1.013 -0.38,-1.36c-0.254,-0.347 -0.68,-0.52 -1.28,-0.52c-0.467,-0 -0.877,0.153 -1.23,0.46c-0.354,0.307 -0.584,0.78 -0.69,1.42Z" style="fill:#151515;fill-rule:nonzero;"/><path d="M58.894,18.44l-0,-9.92l2.4,-0l0.2,1.28l0.08,-0c0.413,-0.413 0.853,-0.77 1.32,-1.07c0.466,-0.3 1.026,-0.45 1.68,-0.45c0.706,-0 1.276,0.143 1.71,0.43c0.433,0.287 0.776,0.697 1.03,1.23c0.44,-0.453 0.903,-0.843 1.39,-1.17c0.486,-0.327 1.063,-0.49 1.73,-0.49c1.066,-0 1.85,0.357 2.35,1.07c0.5,0.713 0.75,1.69 0.75,2.93l-0,6.16l-2.94,-0l-0,-5.78c-0,-0.72 -0.097,-1.213 -0.29,-1.48c-0.194,-0.267 -0.504,-0.4 -0.93,-0.4c-0.494,-0 -1.06,0.32 -1.7,0.96l-0,6.7l-2.94,-0l-0,-5.78c-0,-0.72 -0.097,-1.213 -0.29,-1.48c-0.194,-0.267 -0.504,-0.4 -0.93,-0.4c-0.507,-0 -1.067,0.32 -1.68,0.96l-0,6.7l-2.94,0Z" style="fill:#151515;fill-rule:nonzero;"/><path d="M76.034,18.44l-0,-9.92l2.94,-0l-0,9.92l-2.94,-0Zm1.46,-11.38c-0.494,-0 -0.9,-0.143 -1.22,-0.43c-0.32,-0.287 -0.48,-0.657 -0.48,-1.11c-0,-0.453 0.16,-0.82 0.48,-1.1c0.32,-0.28 0.726,-0.42 1.22,-0.42c0.506,-0 0.916,0.14 1.23,0.42c0.313,0.28 0.47,0.647 0.47,1.1c-0,0.453 -0.157,0.823 -0.47,1.11c-0.314,0.287 -0.724,0.43 -1.23,0.43Z" style="fill:#151515;fill-rule:nonzero;"/><path d="M85.374,18.68c-0.614,-0 -1.137,-0.093 -1.57,-0.28c-0.434,-0.187 -0.787,-0.447 -1.06,-0.78c-0.274,-0.333 -0.474,-0.737 -0.6,-1.21c-0.127,-0.473 -0.19,-0.997 -0.19,-1.57l-0,-4.02l-1.36,-0l-0,-2.18l1.52,-0.12l0.34,-2.64l2.44,-0l-0,2.64l2.38,-0l-0,2.3l-2.38,-0l-0,3.98c-0,0.56 0.116,0.963 0.35,1.21c0.233,0.247 0.543,0.37 0.93,0.37c0.16,-0 0.323,-0.02 0.49,-0.06c0.166,-0.04 0.316,-0.087 0.45,-0.14l0.46,2.14c-0.267,0.08 -0.58,0.16 -0.94,0.24c-0.36,0.08 -0.78,0.12 -1.26,0.12Z" style="fill:#151515;fill-rule:nonzero;"/><path d="M92.194,18.68c-1.08,-0 -1.864,-0.353 -2.35,-1.06c-0.487,-0.707 -0.73,-1.687 -0.73,-2.94l-0,-6.16l2.94,-0l-0,5.78c-0,0.72 0.1,1.213 0.3,1.48c0.2,0.267 0.513,0.4 0.94,0.4c0.373,-0 0.686,-0.087 0.94,-0.26c0.253,-0.173 0.526,-0.453 0.82,-0.84l-0,-6.56l2.94,-0l-0,9.92l-2.4,-0l-0.22,-1.38l-0.06,-0c-0.427,0.507 -0.884,0.903 -1.37,1.19c-0.487,0.287 -1.07,0.43 -1.75,0.43Z" style="fill:#151515;fill-rule:nonzero;"/><path d="M100.574,18.44l-0,-9.92l2.4,-0l0.2,1.26l0.08,-0c0.426,-0.4 0.893,-0.75 1.4,-1.05c0.506,-0.3 1.1,-0.45 1.78,-0.45c1.08,-0 1.863,0.353 2.35,1.06c0.486,0.707 0.73,1.687 0.73,2.94l-0,6.16l-2.94,-0l-0,-5.78c-0,-0.72 -0.097,-1.213 -0.29,-1.48c-0.194,-0.267 -0.504,-0.4 -0.93,-0.4c-0.374,-0 -0.694,0.083 -0.96,0.25c-0.267,0.167 -0.56,0.403 -0.88,0.71l-0,6.7l-2.94,-0Z" style="fill:#151515;fill-rule:nonzero;"/><path d="M116.454,18.68c-0.707,-0 -1.367,-0.117 -1.98,-0.35c-0.614,-0.233 -1.147,-0.573 -1.6,-1.02c-0.454,-0.447 -0.807,-0.99 -1.06,-1.63c-0.254,-0.64 -0.38,-1.373 -0.38,-2.2c-0,-0.8 0.133,-1.523 0.4,-2.17c0.266,-0.647 0.616,-1.193 1.05,-1.64c0.433,-0.447 0.93,-0.79 1.49,-1.03c0.56,-0.24 1.14,-0.36 1.74,-0.36c0.706,-0 1.323,0.12 1.85,0.36c0.526,0.24 0.966,0.573 1.32,1c0.353,0.427 0.616,0.93 0.79,1.51c0.173,0.58 0.26,1.21 0.26,1.89c-0,0.267 -0.014,0.52 -0.04,0.76c-0.027,0.24 -0.054,0.42 -0.08,0.54l-5.94,-0c0.133,0.72 0.43,1.25 0.89,1.59c0.46,0.34 1.023,0.51 1.69,0.51c0.706,-0 1.42,-0.22 2.14,-0.66l0.98,1.78c-0.507,0.347 -1.07,0.62 -1.69,0.82c-0.62,0.2 -1.23,0.3 -1.83,0.3Zm-2.2,-6.28l3.58,-0c-0,-0.56 -0.127,-1.013 -0.38,-1.36c-0.254,-0.347 -0.68,-0.52 -1.28,-0.52c-0.467,-0 -0.877,0.153 -1.23,0.46c-0.354,0.307 -0.584,0.78 -0.69,1.42Z" style="fill:#151515;fill-rule:nonzero;"/><rect x="6" y="0" width="18" height="4" style="fill:#151515;"/><rect x="-0" y="7" width="18" height="4" style="fill:#151515;"/><rect x="6" y="14" width="18" height="4" style="fill:#151515;"/><rect x="-0" y="21.045" width="18" height="4" style="fill:#151515;"/></svg>